<svg xmlns="http://www.w3.org/2000/svg" xmlns:xlink="http://www.w3.org/1999/xlink" width="880px" height="540px" viewBox="0 0 880 540" preserveAspectRatio="xMidYMid meet"  ><rect id="svgEditorBackground" x="0" y="0" width="880" height="540" style="fill: none; stroke: none;"/><defs id="svgEditorDefs"><path id="svgEditorClosePathDefs" style="stroke:black;stroke-width:1px;fill:khaki;"/><linearGradient gradientUnits="objectBoundingBox" id="lgrd2-fire" spreadMethod="pad" x1="0%" x2="100%" y1="0%" y2="0%"><stop offset="0%" style="stop-color:rgb(255,255,0);stop-opacity:1"/><stop offset="100%" style="stop-color:rgb(255,0,0);stop-opacity:1"/></linearGradient><linearGradient gradientUnits="objectBoundingBox" id="lgrd2-b" spreadMethod="pad" x1="0" x2="100%" y1="0" y2="0"><stop offset="0%" stop-color="#BBC42A"/><stop offset="100%" stop-color="#ED6E46"/></linearGradient></defs><ellipse id="e7_ellipse" cx="388.25" cy="286.5" style="fill:white;stroke:black;stroke-width:1px;" rx="5.25" ry="2.5" transform="matrix(4.68616 -0.300143 0.300143 4.68616 -1459.22 -1064.75)"/><ellipse id="e8_ellipse" cx="376.5" cy="287" style="fill:white;stroke:black;stroke-width:1px;" rx="5.5" ry="2.5" transform="matrix(4.68616 -0.300143 0.300143 4.68616 -1459.22 -1064.75)"/><path d="M378.99999999999994,289.75c-2.500000000000057,19.5,18,15.75,5.5,0.5" style="fill:none;stroke:black;stroke-width:1px;" id="e11_arc3" transform="matrix(4.68616 -0.300143 0.300143 4.68616 -1459.22 -1064.75)"/><circle id="e12_circle" cx="378.75" cy="286.5" style="fill:black;stroke:black;stroke-width:1px;" r="1.04393" transform="matrix(4.68616 -0.300143 0.300143 4.68616 -1459.22 -1064.75)"/><circle id="e13_circle" cx="390" cy="286.5" style="fill:black;stroke:black;stroke-width:1px;" r="1.62576" transform="matrix(4.68616 -0.300143 0.300143 4.68616 -1459.22 -1064.75)"/><path d="M372.5,306.5q-0.9498346768667147,2.979141797007628,3.25,3.25q7.666007730396927,1.6559583759477619,12.500000000000057,0.75q8.627131736313856,-1.492231829068544,4.499999999999943,-4.75q-5.373335687172187,-2.8730349204539607,-9.25,-0.25q-5.568386358539215,-2.7617753818632877,-8.75,-0.25q-1.017127956141394,-0.4381931318900456,-2.5,1.25Z" style="stroke:black;fill:red;stroke-width:1px;" id="e15_area2" transform="matrix(4.68616 -0.300143 0.300143 4.68616 -1459.22 -1064.75)"/><path d="M365.49999999999994,278.5l-0.25,0.25l0,0.25l-0.25,0.25l0,0.25l0,0.25l0,0.25l0,0.25l-0.25,0.25l0,0.25l0,0.25l0,0.25l0,0.25l0,0.25l0,0.25l-0.25,0.25l0,0.25l0,0.25l-0.25,0l0,0.25l0,0.25l0,0.25l0,0.75l0.25,0.25l0,0.25l0,0.5l0,0.75l0.25,1.25l0,0.75l0,0.25l0,0.25l0,0.75l0,1l0,1l0,1l0,0.75l0,0.5l0,1l0,1.25l0,1l0,1.25l0,1.25l0.25,0.75l0,0.5l0,0.25l0,0.25l0,1l-0.25,0.5l0,0.25l0,0.25l-0.25,0l0,0.25l0.25,0.75l0,0.25l0,0.5l0,0.25l0,0.5l0,0.25l0,0.25l0.25,0.25l0,0.25l0,0.25l0.25,0l0,0.25l0.25,0.25l0.25,0.25l0.25,0l0,0.25l0.25,0l0.25,0.25l0.25,0l0,0.25l0.25,0l0.25,0l0,0.25l0.25,0l0,0.625l-0.4375,-0.34375l0.15625,0.15625l0.46875,0.4375l0.3125,0.4375l0.40625,0.3125l0.125,0.3125l0.21875,0.28125l0.25,0.3125l0.125,0.0625l0.1875,0.15625l0.21875,0.1875l0.0625,0l0.1875,0.34375l0.25,0.5l0.5,0.78125l0.53125,0.71875l0.625,1.25l1.0625,0.875l0.90625,1.25l1.03125,1.25l0.90625,0.5l1.40625,0.375l0.9375,0.34375l1.09375,0.3125l0.5000000000000568,0.1875l0.43749999999994316,0.03125l0.5,-0.0625l0.40625000000005684,-0.03125l0.37499999999994316,-0.15625l0.34375,-0.125l0.34375,-0.15625l0.46875,-0.15625l0.34375,0l0.5,0.0625l0.5000000000000568,0.09375l0.46874999999994316,0.09375l0.40625000000005684,0l0.4999999999998863,0l0.7187499999999432,-0.03125l0.5312500000001705,-0.09375l0.5937499999998863,-0.09375l0.40625,-0.21875l0.5000000000000568,-0.1875l0.59375,-0.25l0.46874999999994316,-0.28125l0.5312500000001137,-0.28125l0.5624999999999432,-0.40625l1.375,-1l1.3750000000000568,-1.125l0.9062499999999432,-0.65625l0.25,-0.1875l0.3125,-0.46875l0.15625,-0.3125l0.06250000000005684,-0.0625l0.28124999999994316,-0.5625l0.25,-0.25l0.25,0l0.25,-0.25l0.25,0l0.25,-0.25l0.25,-0.25l0.5,-0.25l0,-0.25l0.25,0l0.25,-0.25l0.5,-0.75l0.5,-0.75l0,-0.25l0,-0.25l0,-0.25l0.25,-1l0,-0.5l0,-0.5l0.25,-0.25l0,-0.75l0,-0.75l0,-0.75l-0.25,-0.25l0,-0.25l0,-0.75l-0.25,-0.5l0,-0.25l-0.25,-0.25l0,-0.25l0,-0.25l0,-0.75l0,-0.25l-0.25,-0.25l0,-0.75l-0.25,-0.75l0,-0.5l0,-0.25l0,-0.25l0,-0.5l0,-0.5l0,-0.25l0,-0.25l0,-0.5l0,-0.25l-0.25,-0.25l0,-0.25l0,-0.5l0,-0.5l0,-0.25l0,-0.25l0,-0.25l-0.25,-0.25l0,-0.25l-0.25,-0.5l0,-0.5l0.25,-0.25l0,-0.25l0,-0.25l0,-0.5l0,-0.75l0,-0.5l0,-0.25l0,-0.25l0,-0.25l0.25,-0.5l0,-1l0.25,-1.25l0,-1.75l0.25,-1.5l0.25,-0.75l0,-0.5l0,-0.75l0,-1l0,-1l0,-0.75l-0.25,-0.5l0,-0.5l-0.25,-0.5l0,-0.5l-0.25,-0.5l-0.25,-0.5l-0.25,-0.25l-0.25,-0.25l0,-0.25l-0.25,-0.25l-0.25,-0.25l0,-0.25l-0.25,0l0,-0.25l-0.25,0l-0.5,-0.5l-0.5,-0.25l-0.25,-0.25l-0.25,0l-0.25,-0.25l-0.5,0l-0.5,0l-0.25,0l-0.75,0l-0.5,0l-0.75,0l-0.5,0l-0.5,0l-0.75,0l-0.5,0l-1,0l-1.25,0l-0.5,-0.25l-0.75,0l-0.25,0l-1,0l-1.25,0l-1.75,-0.25l-0.5,0l-0.5,0l-0.25,0l-1.75,0l-1.5,0.25l-1.25,0l-0.5,0l-0.25,0l-0.5,0l-0.25,0.25l-0.75,0l-0.5,0l-0.25,0l-0.25,0l-0.5,0.25l-0.25,0.25l-0.25,0l-0.25,0.25l-0.25,0.25l0,0.25l-0.5,0l-0.5,0.25l-0.25,0.25l-0.25,0.5l-0.25,0.25l0,0.25l-0.25,0l0,0.25l-0.25,0l0,0.25l-0.25,0l-0.25,0.25l-0.25,0l0,0.25l0,0.25l-0.25,0l0,0.25l-0.25,0.25l0,0.25l-0.25,0l0,0.25l0,0.25l-0.25,0.25l0,0.25l0,0.25l-0.25,0l0,0.25l-0.25,0l-0.25,0l-0.25,0l-0.25,0Z" style="stroke: black; fill:none; stroke-width: 1px;" id="e17_freepath" transform="matrix(4.68616 -0.300143 0.300143 4.68616 -1459.22 -1064.75)"/><line id="e18_line" x1="372.91" y1="306.862" x2="393.41" y2="307.362" style="stroke:black;fill:url(#lgrd2-b);stroke-width:1px;" transform="matrix(4.68616 -0.300143 0.300143 4.68616 -1459.22 -1064.75)"/><path d="M374.4102783203125,312.11181640625a13.375584099395263,13.375584099395263,0,0,0,16.249999999999943,0" style="fill:none;stroke:black;stroke-width:1px;" id="e19_circleArc" transform="matrix(4.68616 -0.300143 0.300143 4.68616 -1459.22 -1064.75)"/><polyline style="stroke:black;fill:none;stroke-width:1px;" id="e20_polyline" points="372.16 283.112 376.66 281.112 380.66 282.612" transform="matrix(4.68616 -0.300143 0.300143 4.68616 -1459.22 -1064.75)"/><polyline style="stroke:black;fill:none;stroke-width:1px;" id="e21_polyline" points="384.41 282.362 390.16 280.862 394.41 282.362" transform="matrix(4.68616 -0.300143 0.300143 4.68616 -1459.22 -1064.75)"/><path d="M398.41027832031244,277.61181640625l-4,-9.75l-8.249999999999943,-4l-18.25,0.5l-14.75,9.75l-8,22.75l-4.5,22l20.25,-0.75l13,-0.75l-9,-11.25l1,-27.5l7.75,-5.75l18.499999999999886,0Z" style="fill:url(#lgrd2-fire);stroke:black;stroke-width:1px;" id="e22_path" transform="matrix(4.68616 -0.300143 0.300143 4.68616 -1459.22 -1064.75)"/><path d="M375.4102783203125,319.11181640625a8.243863199648105,8.243863199648105,0,0,0,13.5,-0.75" style="fill:none;stroke:black;stroke-width:1px;" id="e23_circleArc" transform="matrix(4.68616 -0.300143 0.300143 4.68616 -1459.22 -1064.75)"/><path d="M388.9102783203125,318.86181640625c0,1.579999999999984,1,3.5299999999999727,0,4.75c-1.079999999999984,1.3100000000000023,-3.3000000000000114,0.9700000000000273,-5,1c-3.7099999999999795,0.06999999999999318,-9.230000000000018,1.509999999999991,-11,-1.75c-0.7799999999999727,-1.4399999999999977,2.670000000000016,-6,2,-4.5" style="fill:none;stroke:black;stroke-width:1px;" id="e24_path" transform="matrix(4.68616 -0.300143 0.300143 4.68616 -1459.22 -1064.75)"/><path d="M390.1602783203125,321.36181640625c2.420000000000016,0,4.7099999999999795,-0.6200000000000045,7.25,0c1.579999999999984,0.5299999999999727,3.170000000000016,1.5500000000000114,4,3c0.75,1.3100000000000023,-0.4700000000000273,3.269999999999982,0.5,4.5c5.970000000000027,0.6100000000000136,7.779999999999973,-1.1100000000000136,13.75,-0.5c0.07999999999998408,2.3700000000000045,-0.5199999999999818,4.160000000000025,-2,6c-5.6200000000000045,0.38999999999998636,-7.699999999999989,-0.160000000000025,-13,-1c-1.6200000000000045,-0.44999999999998863,-2.730000000000018,-2.2799999999999727,-4.5,-2.25c-0.5500000000000114,2.2799999999999727,1.089999999999975,4.149999999999977,0.75,6.25c-0.6100000000000136,2.519999999999982,-2.6399999999999864,3.980000000000018,-3.25,6.5c-0.18999999999999773,3.589999999999975,-0.22000000000002728,5.649999999999977,1,9.25c2.25,1,4.2900000000000205,-0.4399999999999977,6.5,0.5c1.3700000000000045,1.0199999999999818,2.2799999999999727,2.730000000000018,2.25,4.5c-5.339999999999975,0.6100000000000136,-7.269999999999982,0.4700000000000273,-12.5,-0.5c-4.009999999999991,-5.1299999999999955,-3.670000000000016,-7.610000000000014,-7.75,-12.75c-3.1499999999999773,4.160000000000025,-2.6399999999999864,6.600000000000023,-5.75,10.75c-5.060000000000002,0.5799999999999841,-6.970000000000027,0.5400000000000205,-12,-0.5c-0.7200000000000273,-0.8100000000000023,-0.38999999999998636,-2.3700000000000045,0.25,-3.25c1.3100000000000023,-1.3700000000000045,3.579999999999984,-0.8999999999999773,5,-2c1.920000000000016,-1.6399999999999864,3.319999999999993,-3.240000000000009,4.25,-5.75c-0.12000000000000455,-3,-2.180000000000007,-4.420000000000016,-2.25,-7.5c2.430000000000007,-0.17000000000001592,4.089999999999975,1.5699999999999932,6.25,1.75c2.5,0.17000000000001592,4.470000000000027,-1.3000000000000114,7.25,-0.75c0.6499999999999773,0.6499999999999773,-0.8100000000000023,2.019999999999982,-0.25,2.75c1.0600000000000023,1.0299999999999727,2.920000000000016,1.339999999999975,4.25,0.75c1.5199999999999818,-1.160000000000025,2.420000000000016,-2.819999999999993,2.5,-4.75c-6.050000000000011,-2.009999999999991,-8.319999999999993,-0.9900000000000091,-14.25,-2.75c-4.420000000000016,-3.670000000000016,-4.810000000000002,-6.1200000000000045,-9.5,-9.75c-1.6100000000000136,0.14999999999997726,-3.1200000000000045,1.259999999999991,-3.75,2.75c2.519999999999982,4.639999999999986,4.509999999999991,5.8700000000000045,7.5,9.75" style="fill:none;stroke:black;stroke-width:1px;" id="e26_path" transform="matrix(4.68616 -0.300143 0.300143 4.68616 -1459.22 -1064.75)"/><line id="e27_line" x1="368.41" y1="323.862" x2="372.66" y2="322.362" style="stroke:black;fill:none;stroke-width:1px;" transform="matrix(4.68616 -0.300143 0.300143 4.68616 -1459.22 -1064.75)"/><line id="e29_line" x1="389.41" y1="320.862" x2="390.66" y2="321.112" style="stroke:black;fill:none;stroke-width:1px;" transform="matrix(4.68616 -0.300143 0.300143 4.68616 -1459.22 -1064.75)"/><text style="fill:black;font-family:Arial;font-size:6px;font-style:normal;" x="345.16" y="306.112" id="e30_texte" transform="matrix(4.68616 -0.300143 0.300143 4.68616 -1459.22 -1064.75)"><tspan x="347.16" dy="1.25em" y="">Срака</tspan></text><text style="fill:black;font-family:Arial;font-size:6px;font-style:normal;" x="349.16" y="307.362" id="e31_texte" transform="matrix(4.68616 -0.300143 0.300143 4.68616 -1459.22 -1064.75)">тётя</text></svg>